<mxfile host="app.diagrams.net" modified="2024-03-10T11:46:04.692Z" agent="Mozilla/5.0 (Windows NT 10.0; Win64; x64) AppleWebKit/537.36 (KHTML, like Gecko) Chrome/122.0.0.0 Safari/537.36" version="24.0.4" etag="lWEtbQUBF3IVqVp0EPbu" type="github">
  <diagram name="StrÃ¡nka-1" id="-hdS_Wtt8huWN9q193GA">
    <mxGraphModel>
      <root>
        <mxCell id="0" />
        <mxCell id="1" parent="0" />
      </root>
    </mxGraphModel>
  </diagram>
</mxfile>
